<?xml version="1.0" encoding="UTF-8" standalone="no"?>
<!DOCTYPE svg PUBLIC "-//W3C//DTD SVG 1.1//EN" "http://www.w3.org/Graphics/SVG/1.1/DTD/svg11.dtd">
<svg width="100%" height="100%" viewBox="0 0 4391 701" version="1.1" xmlns="http://www.w3.org/2000/svg" xmlns:xlink="http://www.w3.org/1999/xlink" xml:space="preserve" xmlns:serif="http://www.serif.com/" style="fill-rule:evenodd;clip-rule:evenodd;stroke-linejoin:round;stroke-miterlimit:2;">
    <g transform="matrix(1,0,0,1,-45.658941,-35.905147)">
        <g id="TAVILhub" transform="matrix(1.695029,0,0,1.695029,-1183.324816,-2945.076922)">
            <g transform="matrix(592.263998,0,0,558.708716,711.459616,2156.038528)">
                <path d="M0.028,-0.699L0.696,-0.7L0.695,-0.539L0.47,-0.539L0.468,0.024L0.249,0.024L0.249,-0.539L0.023,-0.539L0.028,-0.699ZM1.163,-0.7L1.419,-0.7L1.589,-0.174L1.798,-0.692L2.023,-0.692L1.757,0.024L1.426,0.024L1.163,-0.7ZM2.065,-0.7L2.264,-0.7L2.259,0.016L2.055,0.016L2.065,-0.7ZM2.362,-0.7L2.528,-0.7L2.538,-0.15L2.78,-0.148L2.782,0.016L2.362,0.016L2.362,-0.7ZM1.035,-0.094L0.783,-0.094L0.749,0.024L0.523,0.024L0.784,-0.7L1.03,-0.699L1.302,0.024L1.07,0.024L1.035,-0.094ZM0.989,-0.249L0.91,-0.506L0.831,-0.249L0.989,-0.249Z" style="fill:white;"/>
            </g>
            <g transform="matrix(0.58996,0,0,0.58996,670.386516,984.689102)">
                <path d="M2983.465,1996.063L3028.346,1990.157C3028.346,1990.157 3103.417,1698.073 3248.204,1665.485C3280.262,1658.269 3280.461,1683.046 3274.816,1718.165C3259.398,1814.076 3200.787,1960.63 3200.787,1960.63C3200.787,1960.63 3164.588,2024.482 3259.843,2009.822C3355.097,1995.162 3299.966,1907.106 3299.966,1907.106L3389.764,1570.866L3318.898,1523.622L3177.165,1606.299L3011.811,1807.087L2952.756,1984.252L2983.465,1996.063Z" style="fill:rgb(193,0,0);"/>
            </g>
            <g transform="matrix(0.593635,0,0,0.560002,420.440672,1011.372549)">
                <g transform="matrix(1123.729719,0,0,1123.729719,4977.261475,2054.87684)">
                </g>
                <text x="3259.843px" y="2054.877px" style="font-family:'BookAntiqua-Italic', 'Book Antiqua', serif;font-style:italic;font-size:1123.73px;fill:rgb(193,0,0);">net.</text>
            </g>
        </g>
    </g>
</svg>
