<svg width="557" height="141" viewBox="0 0 557 141" fill="none" xmlns="http://www.w3.org/2000/svg">
<g clip-path="url(#clip0_2026_7603)">
<path d="M395.952 140.986C382.036 140.986 368.879 135.67 358.905 126.017C354.789 122.032 354.698 115.483 358.704 111.388C362.707 107.293 369.291 107.202 373.407 111.187C379.476 117.061 387.482 120.296 395.952 120.296C404.622 120.296 412.763 116.928 418.877 110.812C422.927 106.762 429.511 106.744 433.583 110.773C437.655 114.802 437.671 121.353 433.622 125.404C423.577 135.452 410.197 140.986 395.952 140.986Z" fill="#7D9DEA"/>
<path d="M505.999 38.041C477.986 38.041 455.277 60.6346 455.277 88.5049C455.277 116.376 477.986 138.969 505.999 138.969C534.012 138.969 556.722 116.376 556.722 88.5049C556.722 60.6346 534.012 38.041 505.999 38.041ZM505.999 58.9405C522.384 58.9405 535.716 72.2032 535.716 88.5049C535.716 104.807 522.384 118.07 505.999 118.07C489.614 118.07 476.284 104.807 476.284 88.5049C476.284 72.2032 489.614 58.9405 505.999 58.9405Z" fill="#1E2941"/>
<path d="M395.947 58.5455C406.915 58.5455 416.44 64.7794 421.149 73.8706H370.745C375.453 64.7794 384.98 58.5455 395.947 58.5455ZM444.137 78.1599C443.877 76.7065 443.551 75.2763 443.165 73.8706C437.493 53.22 418.502 38.041 395.947 38.041C373.392 38.041 354.403 53.22 348.729 73.8706C348.343 75.2763 348.017 76.7065 347.758 78.1599C347.26 80.9447 347 83.8116 347 86.739C347 86.7603 347 86.7816 347 86.8029C347.005 90.265 349.881 93.0468 353.359 93.0468H368.319H423.574H438.534C442.013 93.0468 444.889 90.2653 444.894 86.8034C444.894 86.7819 444.894 86.7603 444.894 86.739C444.894 83.8116 444.635 80.9447 444.137 78.1599Z" fill="#1E2941"/>
<path d="M127.566 138.85C121.765 138.85 117.062 134.171 117.062 128.4V52.0765C117.062 46.3057 121.765 41.627 127.566 41.627C133.366 41.627 138.069 46.3057 138.069 52.0765V128.4C138.069 134.171 133.366 138.85 127.566 138.85Z" fill="#1E2941"/>
<path d="M222.214 138.849H163.456C159.506 138.849 155.89 136.645 154.098 133.143C152.304 129.641 152.638 125.435 154.96 122.256L198.606 62.5137H163.538C157.738 62.5137 153.035 57.835 153.035 52.064C153.035 46.2927 157.738 41.6143 163.538 41.6143H219.225C223.175 41.6143 226.791 43.8193 228.583 47.3208C230.376 50.8225 230.044 55.0288 227.722 58.2077L184.075 117.95H222.214C228.015 117.95 232.716 122.629 232.716 128.4C232.716 134.171 228.015 138.849 222.214 138.849Z" fill="#1E2941"/>
<path d="M51.1906 118.069C34.8051 118.069 21.4745 104.807 21.4745 88.5046C21.4745 72.2029 34.8051 58.9402 51.1906 58.9402C67.5763 58.9402 80.9069 72.2029 80.9069 88.5046C80.9069 104.807 67.5763 118.069 51.1906 118.069ZM51.1906 38.0407C39.8832 38.0407 29.4412 41.7234 21.0068 47.9471V10.4464C21.0068 4.67545 16.304 -0.00292969 10.5036 -0.00292969C4.70271 -0.00292969 0 4.67545 0 10.4464V128.401C0 134.172 4.70271 138.851 10.5036 138.851C16.0861 138.851 20.6494 134.517 20.9849 129.047C29.4233 135.28 39.8736 138.969 51.1906 138.969C79.2036 138.969 101.913 116.375 101.913 88.5046C101.913 60.6343 79.2036 38.0407 51.1906 38.0407Z" fill="#1E2941"/>
<path d="M139.275 13.5492C139.275 20.0498 133.978 25.3201 127.444 25.3201C120.91 25.3201 115.613 20.0498 115.613 13.5492C115.613 7.04851 120.91 1.77832 127.444 1.77832C133.978 1.77832 139.275 7.04851 139.275 13.5492Z" fill="#7D9DEA"/>
<path d="M292.5 38.8887C282.674 38.8887 273.406 42.244 266.026 48.0683C264.889 43.5176 260.768 40.1401 255.844 40.1401C250.043 40.1401 245.34 44.8185 245.34 50.5897V128.4C245.34 134.171 250.043 138.85 255.844 138.85C260.89 138.85 265.1 135.308 266.112 130.588V82.6518C266.112 69.4608 276.86 58.7672 290.119 58.7672C294.918 58.7672 299.384 60.1736 303.134 62.5867C309.665 66.283 314.083 73.2664 314.083 81.2621V81.2777C314.11 81.7327 314.126 82.1904 314.126 82.6518V129.234C314.555 134.614 319.07 138.85 324.587 138.85C330.388 138.85 335.091 134.171 335.091 128.4V81.2621C335.091 57.8971 315.985 38.8887 292.5 38.8887Z" fill="#1E2941"/>
</g>
<defs>
<clipPath id="clip0_2026_7603">
<rect width="557" height="141" fill="white"/>
</clipPath>
</defs>
</svg>
